<?xml version="1.0" standalone="no"?>
<!DOCTYPE svg PUBLIC "-//W3C//DTD SVG 20010904//EN"
 "http://www.w3.org/TR/2001/REC-SVG-20010904/DTD/svg10.dtd">
<svg version="1.0" xmlns="http://www.w3.org/2000/svg"
 width="410.000000pt" height="410.000000pt" viewBox="0 0 410.000000 410.000000"
 preserveAspectRatio="xMidYMid meet">
<metadata>
Created by potrace 1.14, written by Peter Selinger 2001-2017
</metadata>
<g transform="translate(0.000000,410.000000) scale(0.100000,-0.100000)"
fill="#000000" stroke="none">
<path d="M971 3760 l-336 -335 -1 -539 -2 -539 38 -41 c21 -23 86 -88 144
-146 74 -73 106 -112 106 -128 0 -13 -4 -20 -10 -17 -5 3 -10 1 -10 -4 0 -13
-168 -179 -175 -173 -2 3 -9 -8 -15 -23 -6 -15 -13 -25 -17 -22 -3 4 -19 -10
-34 -31 l-28 -38 1 -533 1 -532 78 -79 c43 -43 75 -81 72 -84 -4 -3 -1 -6 5
-6 6 0 122 -110 258 -245 l246 -245 758 0 757 0 49 49 c27 27 55 55 62 63 7 7
33 32 57 55 25 24 41 43 37 43 -4 1 3 6 15 13 12 7 33 27 46 45 13 17 26 29
30 26 3 -3 17 12 31 33 14 20 26 34 26 29 0 -4 20 14 45 41 25 26 45 52 45 56
0 5 4 6 9 2 6 -3 21 11 35 32 15 21 26 34 26 30 0 -4 16 8 35 27 19 20 35 40
35 46 0 5 6 10 13 10 6 0 23 12 36 25 l24 26 0 544 0 545 -31 32 c-17 18 -82
84 -146 147 -98 98 -113 117 -105 134 14 25 47 57 59 57 5 0 10 4 10 9 0 13
118 130 125 123 5 -5 9 14 6 31 -1 5 3 6 8 3 5 -3 24 12 42 33 l32 40 0 535
c0 419 -3 539 -13 551 -7 8 -9 15 -4 15 5 0 -4 9 -20 19 -16 11 -33 27 -38 36
-5 8 -13 13 -18 10 -4 -3 -14 5 -23 18 -19 29 -290 302 -299 302 -4 0 -14 9
-22 20 -20 28 -173 185 -181 185 -3 0 -17 12 -30 28 l-23 27 -743 0 -742 1
-336 -336z"/>
</g>
</svg>
